<svg width="2660" height="887" viewBox="0 0 2660 887" fill="none" xmlns="http://www.w3.org/2000/svg">
<path d="M22.1667 265.319L186.923 55.4375H731.5V765.037H22.1667L376.833 265.319H22.1667Z" fill="#4359CC"/>
<path d="M1059.21 570.43H1281.94V654.162H944.3V577.526L1165.61 242.594H944.3V158.862H1281.94V235.498L1059.21 570.43Z" fill="#4359CC"/>
<path d="M1742.42 261.044L1499.12 840.078H1393.43L1478.55 644.228L1321.08 261.044H1432.44L1533.88 535.659L1636.73 261.044H1742.42Z" fill="#4359CC"/>
<path d="M2013.72 255.367C2060.54 255.367 2098.37 270.269 2127.21 300.072C2156.06 329.402 2170.48 370.559 2170.48 423.542V654.162H2071.18V437.025C2071.18 405.802 2063.37 381.913 2047.77 365.355C2032.16 348.325 2010.88 339.81 1983.93 339.81C1956.5 339.81 1934.75 348.325 1918.67 365.355C1903.06 381.913 1895.26 405.802 1895.26 437.025V654.162H1795.95V261.044H1895.26V310.006C1908.5 292.976 1925.29 279.73 1945.62 270.269C1966.43 260.334 1989.13 255.367 2013.72 255.367Z" fill="#4359CC"/>
<path d="M2439.41 660.549C2401.58 660.549 2367.53 652.27 2337.27 635.713C2307.01 618.682 2283.12 594.793 2265.63 564.043C2248.6 533.294 2240.09 497.814 2240.09 457.603C2240.09 417.393 2248.84 381.913 2266.34 351.163C2284.31 320.414 2308.66 296.761 2339.4 280.203C2370.14 263.173 2404.42 254.658 2442.25 254.658C2480.08 254.658 2514.37 263.173 2545.1 280.203C2575.84 296.761 2599.96 320.414 2617.46 351.163C2635.43 381.913 2644.41 417.393 2644.41 457.603C2644.41 497.814 2635.19 533.294 2616.75 564.043C2598.78 594.793 2574.19 618.682 2542.98 635.713C2512.24 652.27 2477.72 660.549 2439.41 660.549ZM2439.41 573.978C2457.38 573.978 2474.17 569.72 2489.78 561.205C2505.85 552.217 2518.62 538.971 2528.08 521.467C2537.54 503.964 2542.27 482.676 2542.27 457.603C2542.27 420.231 2532.34 391.61 2512.48 371.742C2493.09 351.4 2469.21 341.229 2440.83 341.229C2412.46 341.229 2388.58 351.4 2369.19 371.742C2350.27 391.61 2340.82 420.231 2340.82 457.603C2340.82 494.976 2350.04 523.833 2368.48 544.174C2387.4 564.043 2411.04 573.978 2439.41 573.978Z" fill="#4359CC"/>
</svg>
