<svg width="2623" height="786" viewBox="0 0 2623 786" fill="none" xmlns="http://www.w3.org/2000/svg">
<path d="M0.166748 210.319L164.923 0.4375H709.5V710.037H0.166748L354.833 210.319H0.166748Z" fill="#4359CC"/>
<path d="M1037.21 515.43H1259.94V599.162H922.3V522.526L1143.61 187.594H922.3V103.862H1259.94V180.498L1037.21 515.43Z" fill="#4359CC"/>
<path d="M1720.42 206.044L1477.12 785.078H1371.43L1456.55 589.228L1299.08 206.044H1410.44L1511.88 480.659L1614.73 206.044H1720.42Z" fill="#4359CC"/>
<path d="M1991.72 200.367C2038.54 200.367 2076.37 215.269 2105.21 245.072C2134.06 274.402 2148.48 315.559 2148.48 368.542V599.162H2049.18V382.025C2049.18 350.803 2041.37 326.913 2025.77 310.355C2010.16 293.325 1988.88 284.81 1961.93 284.81C1934.5 284.81 1912.75 293.325 1896.67 310.355C1881.06 326.913 1873.26 350.803 1873.26 382.025V599.162H1773.95V206.044H1873.26V255.006C1886.5 237.976 1903.29 224.73 1923.62 215.269C1944.43 205.334 1967.13 200.367 1991.72 200.367Z" fill="#4359CC"/>
<path d="M2417.41 605.549C2379.58 605.549 2345.53 597.27 2315.27 580.713C2285.01 563.682 2261.12 539.793 2243.63 509.043C2226.6 478.294 2218.09 442.814 2218.09 402.603C2218.09 362.393 2226.84 326.913 2244.34 296.163C2262.31 265.414 2286.66 241.761 2317.4 225.203C2348.14 208.173 2382.42 199.658 2420.25 199.658C2458.08 199.658 2492.37 208.173 2523.1 225.203C2553.84 241.761 2577.96 265.414 2595.46 296.163C2613.43 326.913 2622.41 362.393 2622.41 402.603C2622.41 442.814 2613.19 478.294 2594.75 509.043C2576.78 539.793 2552.19 563.682 2520.98 580.713C2490.24 597.27 2455.72 605.549 2417.41 605.549ZM2417.41 518.978C2435.38 518.978 2452.17 514.72 2467.78 506.205C2483.85 497.217 2496.62 483.971 2506.08 466.467C2515.54 448.964 2520.27 427.676 2520.27 402.603C2520.27 365.231 2510.34 336.61 2490.48 316.742C2471.09 296.4 2447.21 286.229 2418.83 286.229C2390.46 286.229 2366.58 296.4 2347.19 316.742C2328.27 336.61 2318.82 365.231 2318.82 402.603C2318.82 439.976 2328.04 468.833 2346.48 489.174C2365.4 509.043 2389.04 518.978 2417.41 518.978Z" fill="#4359CC"/>
</svg>
